<svg width="120" height="120" viewBox="0 0 120 120" fill="none" xmlns="http://www.w3.org/2000/svg">
<circle opacity="0.2" cx="60" cy="66" r="49" fill="#AB9B5E"/>
<circle cx="59.6084" cy="24" r="18.5" fill="white" stroke="#AB9B5E"/>
<path d="M62.0743 30.9517V29.9609C62.0743 29.1442 62.2377 28.4091 62.5644 27.7557C62.8911 27.0952 63.3563 26.5732 63.96 26.1896C64.5637 25.8061 65.281 25.6143 66.112 25.6143C66.95 25.6143 67.6673 25.8061 68.2639 26.1896C68.8605 26.5732 69.3186 27.0952 69.6382 27.7557C69.9578 28.4091 70.1176 29.1442 70.1176 29.9609V30.9517C70.1176 31.7685 69.9543 32.5036 69.6276 33.157C69.308 33.8104 68.8499 34.3324 68.2533 34.723C67.6567 35.1065 66.9429 35.2983 66.112 35.2983C65.2668 35.2983 64.5423 35.1065 63.9387 34.723C63.3421 34.3324 62.8804 33.8104 62.5537 33.157C62.2341 32.5036 62.0743 31.7685 62.0743 30.9517ZM63.7469 29.9609V30.9517C63.7469 31.7543 63.9422 32.4396 64.3328 33.0078C64.7306 33.5689 65.3236 33.8494 66.112 33.8494C66.879 33.8494 67.4578 33.5689 67.8485 33.0078C68.2391 32.4396 68.4344 31.7543 68.4344 30.9517V29.9609C68.4344 29.1584 68.2426 28.4766 67.8591 27.9155C67.4756 27.3473 66.8932 27.0632 66.112 27.0632C65.3378 27.0632 64.7483 27.3473 64.3435 27.9155C63.9458 28.4766 63.7469 29.1584 63.7469 29.9609ZM51.08 18.2209V17.2301C51.08 16.4134 51.2433 15.6783 51.57 15.0249C51.8968 14.3714 52.3619 13.853 52.9656 13.4695C53.5693 13.0788 54.2867 12.8835 55.1176 12.8835C55.9557 12.8835 56.673 13.0788 57.2696 13.4695C57.8662 13.853 58.3243 14.3714 58.6439 15.0249C58.9635 15.6783 59.1233 16.4134 59.1233 17.2301V18.2209C59.1233 19.0376 58.96 19.7763 58.6333 20.4368C58.3137 21.0902 57.8556 21.6087 57.259 21.9922C56.6624 22.3757 55.9486 22.5675 55.1176 22.5675C54.2725 22.5675 53.548 22.3757 52.9443 21.9922C52.3477 21.6087 51.8861 21.0902 51.5594 20.4368C51.2398 19.7763 51.08 19.0376 51.08 18.2209ZM52.7526 17.2301V18.2209C52.7526 19.0234 52.9479 19.7088 53.3385 20.277C53.7362 20.8381 54.3293 21.1186 55.1176 21.1186C55.8847 21.1186 56.4635 20.8381 56.8541 20.277C57.2448 19.7088 57.4401 19.0234 57.4401 18.2209V17.2301C57.4401 16.4276 57.2483 15.7457 56.8648 15.1847C56.4813 14.6165 55.8989 14.3324 55.1176 14.3324C54.3435 14.3324 53.754 14.6165 53.3492 15.1847C52.9514 15.7457 52.7526 16.4276 52.7526 17.2301ZM52.0601 35L67.0495 13.1818H68.9351L53.9458 35H52.0601Z" fill="#AB9B5E"/>
<rect x="12.7071" y="38.0483" width="7" height="33" rx="0.5" transform="rotate(-45 12.7071 38.0483)" fill="#DFD6BB" stroke="#AB9B5E"/>
<rect x="-0.707107" width="7" height="33" rx="0.5" transform="matrix(-0.707107 -0.707107 -0.707107 0.707107 105.491 37.5483)" fill="#DFD6BB" stroke="#AB9B5E"/>
<path d="M31.1084 57C31.1084 55.6193 32.2277 54.5 33.6084 54.5H54.5H64.5H85.6084C86.9891 54.5 88.1084 55.6193 88.1084 57V103C88.1084 104.381 86.9891 105.5 85.6084 105.5H64.5H54.5H33.6084C32.2277 105.5 31.1084 104.381 31.1084 103V57Z" fill="#DFD6BB" stroke="#AB9B5E"/>
<path d="M78.6084 48.6067L88.5079 38.7072" stroke="#AB9B5E" stroke-linecap="round"/>
<path d="M69.6084 48.6067L76.6795 41.5356" stroke="#AB9B5E" stroke-linecap="round"/>
<path d="M41.5078 48.8994L31.6083 38.9999" stroke="#AB9B5E" stroke-linecap="round"/>
<path d="M50.5078 48.8994L43.4367 41.8283" stroke="#AB9B5E" stroke-linecap="round"/>
<rect x="55" y="55" width="9" height="50" fill="white"/>
</svg>