<svg width="120" height="120" viewBox="0 0 120 120" fill="none" xmlns="http://www.w3.org/2000/svg">
<circle opacity="0.2" cx="60" cy="66" r="49" fill="#AB9B5E"/>
<circle cx="55.8164" cy="71" r="18.5" fill="white" stroke="#AB9B5E"/>
<path d="M58.2823 77.9517V76.9609C58.2823 76.1442 58.4457 75.4091 58.7724 74.7557C59.0991 74.0952 59.5643 73.5732 60.168 73.1896C60.7717 72.8061 61.489 72.6143 62.32 72.6143C63.158 72.6143 63.8754 72.8061 64.4719 73.1896C65.0685 73.5732 65.5266 74.0952 65.8462 74.7557C66.1658 75.4091 66.3256 76.1442 66.3256 76.9609V77.9517C66.3256 78.7685 66.1623 79.5036 65.8356 80.157C65.516 80.8104 65.0579 81.3324 64.4613 81.723C63.8647 82.1065 63.1509 82.2983 62.32 82.2983C61.4748 82.2983 60.7504 82.1065 60.1467 81.723C59.5501 81.3324 59.0884 80.8104 58.7617 80.157C58.4421 79.5036 58.2823 78.7685 58.2823 77.9517ZM59.9549 76.9609V77.9517C59.9549 78.7543 60.1502 79.4396 60.5408 80.0078C60.9386 80.5689 61.5316 80.8494 62.32 80.8494C63.087 80.8494 63.6658 80.5689 64.0565 80.0078C64.4471 79.4396 64.6424 78.7543 64.6424 77.9517V76.9609C64.6424 76.1584 64.4506 75.4766 64.0671 74.9155C63.6836 74.3473 63.1012 74.0632 62.32 74.0632C61.5458 74.0632 60.9563 74.3473 60.5515 74.9155C60.1538 75.4766 59.9549 76.1584 59.9549 76.9609ZM47.288 65.2209V64.2301C47.288 63.4134 47.4513 62.6783 47.7781 62.0249C48.1048 61.3714 48.57 60.853 49.1737 60.4695C49.7773 60.0788 50.4947 59.8835 51.3256 59.8835C52.1637 59.8835 52.881 60.0788 53.4776 60.4695C54.0742 60.853 54.5323 61.3714 54.8519 62.0249C55.1715 62.6783 55.3313 63.4134 55.3313 64.2301V65.2209C55.3313 66.0376 55.168 66.7763 54.8413 67.4368C54.5217 68.0902 54.0636 68.6087 53.467 68.9922C52.8704 69.3757 52.1566 69.5675 51.3256 69.5675C50.4805 69.5675 49.756 69.3757 49.1523 68.9922C48.5558 68.6087 48.0941 68.0902 47.7674 67.4368C47.4478 66.7763 47.288 66.0376 47.288 65.2209ZM48.9606 64.2301V65.2209C48.9606 66.0234 49.1559 66.7088 49.5465 67.277C49.9442 67.8381 50.5373 68.1186 51.3256 68.1186C52.0927 68.1186 52.6715 67.8381 53.0621 67.277C53.4528 66.7088 53.6481 66.0234 53.6481 65.2209V64.2301C53.6481 63.4276 53.4563 62.7457 53.0728 62.1847C52.6893 61.6165 52.1069 61.3324 51.3256 61.3324C50.5515 61.3324 49.962 61.6165 49.5572 62.1847C49.1594 62.7457 48.9606 63.4276 48.9606 64.2301ZM48.2681 82L63.2575 60.1818H65.1431L50.1538 82H48.2681Z" fill="#AB9B5E"/>
<path d="M82.3164 86C82.3164 84.6193 83.4357 83.5 84.8164 83.5H90.3164H95.8164C97.1971 83.5 98.3164 84.6193 98.3164 86V109C98.3164 110.381 97.1971 111.5 95.8164 111.5H90.3164H84.8164C83.4357 111.5 82.3164 110.381 82.3164 109V86Z" fill="#DFD6BB" stroke="#AB9B5E"/>
<mask id="path-5-inside-1_1179_52" fill="white">
<path fill-rule="evenodd" clip-rule="evenodd" d="M23.8456 82.041C20.6052 84.3497 20.0407 88.9398 22.6252 91.9648L34.7205 106.122C35.2926 106.791 35.9899 107.265 36.7398 107.55C37.3722 107.839 38.0754 108 38.8163 108H82.8163V94L82.8162 87H77.8163L73.4355 84.6105C72.7011 84.2099 71.8779 84 71.0413 84H47.1496C43.2265 84 40.0229 87.0805 39.8259 90.9546L32.8574 83.0721C30.5598 80.4731 26.6708 80.0281 23.8456 82.041Z"/>
</mask>
<path fill-rule="evenodd" clip-rule="evenodd" d="M23.8456 82.041C20.6052 84.3497 20.0407 88.9398 22.6252 91.9648L34.7205 106.122C35.2926 106.791 35.9899 107.265 36.7398 107.55C37.3722 107.839 38.0754 108 38.8163 108H82.8163V94L82.8162 87H77.8163L73.4355 84.6105C72.7011 84.2099 71.8779 84 71.0413 84H47.1496C43.2265 84 40.0229 87.0805 39.8259 90.9546L32.8574 83.0721C30.5598 80.4731 26.6708 80.0281 23.8456 82.041Z" fill="#DFD6BB"/>
<path d="M22.6252 91.9648L23.3855 91.3153V91.3153L22.6252 91.9648ZM23.8456 82.041L24.4259 82.8555L23.8456 82.041ZM34.7205 106.122L33.9602 106.771L34.7205 106.122ZM36.7398 107.55L37.1555 106.64L37.1255 106.627L37.0947 106.615L36.7398 107.55ZM82.8163 108V109H83.8163V108H82.8163ZM82.8163 94H83.8163V94L82.8163 94ZM82.8162 87L83.8162 87L83.8162 86H82.8162V87ZM77.8163 87L77.3374 87.8779L77.5613 88H77.8163V87ZM73.4355 84.6105L73.9144 83.7326V83.7326L73.4355 84.6105ZM39.8259 90.9546L39.0767 91.617L40.7 93.4533L40.8246 91.0054L39.8259 90.9546ZM32.8574 83.0721L33.6067 82.4097L32.8574 83.0721ZM23.3855 91.3153C21.1823 88.7365 21.6635 84.8236 24.4259 82.8555L23.2653 81.2266C19.5469 83.8759 18.8991 89.1431 21.8649 92.6144L23.3855 91.3153ZM35.4808 105.472L23.3855 91.3153L21.8649 92.6144L33.9602 106.771L35.4808 105.472ZM37.0947 106.615C36.4985 106.389 35.9417 106.012 35.4808 105.472L33.9602 106.771C34.6436 107.571 35.4812 108.142 36.3849 108.485L37.0947 106.615ZM38.8163 107C38.2218 107 37.6601 106.871 37.1555 106.64L36.324 108.459C37.0843 108.807 37.9291 109 38.8163 109V107ZM82.8163 107H38.8163V109H82.8163V107ZM81.8163 94V108H83.8163V94H81.8163ZM81.8162 87L81.8163 94L83.8163 94L83.8162 87L81.8162 87ZM77.8163 88H82.8162V86H77.8163V88ZM72.9567 85.4884L77.3374 87.8779L78.2951 86.1221L73.9144 83.7326L72.9567 85.4884ZM71.0413 85C71.7106 85 72.3691 85.1679 72.9567 85.4884L73.9144 83.7326C73.0331 83.2519 72.0452 83 71.0413 83V85ZM47.1496 85H71.0413V83H47.1496V85ZM40.8246 91.0054C40.9947 87.6605 43.7618 85 47.1496 85V83C42.6913 83 39.0512 86.5006 38.8272 90.9038L40.8246 91.0054ZM32.1082 83.7344L39.0767 91.617L40.5751 90.2923L33.6067 82.4097L32.1082 83.7344ZM24.4259 82.8555C26.8343 81.1395 30.1496 81.5188 32.1082 83.7344L33.6067 82.4097C30.9701 79.4273 26.5074 78.9167 23.2653 81.2266L24.4259 82.8555Z" fill="#AB9B5E" mask="url(#path-5-inside-1_1179_52)"/>
<path d="M39.8164 91.5C40.8164 93 43.9164 97 48.3164 97C53.8164 97 60.3164 97 61.8164 97C63.0164 97 64.9831 99 65.8164 100" stroke="#AB9B5E" stroke-linecap="round"/>
<mask id="path-8-inside-2_1179_52" fill="white">
<path fill-rule="evenodd" clip-rule="evenodd" d="M62.8164 31C62.1665 13.8763 56.7039 8.28868 36.8164 6C45.7184 15.4022 49.9682 20.7365 48.8164 31H43.9918C43.1619 31 42.6932 31.9524 43.1994 32.61L55.024 47.9706C55.4243 48.4906 56.2085 48.4906 56.6088 47.9706L68.4334 32.61C68.9396 31.9524 68.4709 31 67.641 31H62.8164Z"/>
</mask>
<path fill-rule="evenodd" clip-rule="evenodd" d="M62.8164 31C62.1665 13.8763 56.7039 8.28868 36.8164 6C45.7184 15.4022 49.9682 20.7365 48.8164 31H43.9918C43.1619 31 42.6932 31.9524 43.1994 32.61L55.024 47.9706C55.4243 48.4906 56.2085 48.4906 56.6088 47.9706L68.4334 32.61C68.9396 31.9524 68.4709 31 67.641 31H62.8164Z" fill="white"/>
<path d="M36.8164 6L36.9307 5.00656L34.2013 4.69245L36.0902 6.68752L36.8164 6ZM62.8164 31L61.8171 31.0379L61.8536 32H62.8164V31ZM48.8164 31V32H49.7105L49.8102 31.1115L48.8164 31ZM43.1994 32.61L42.407 33.22L42.407 33.22L43.1994 32.61ZM55.024 47.9706L54.2316 48.5806L55.024 47.9706ZM56.6088 47.9706L57.4012 48.5806L56.6088 47.9706ZM68.4334 32.61L67.641 32L68.4334 32.61ZM36.7021 6.99344C46.6221 8.13506 52.6581 10.0808 56.3334 13.6539C59.9773 17.1964 61.4944 22.5355 61.8171 31.0379L63.8157 30.9621C63.4885 22.3408 61.9493 16.3242 57.7275 12.2199C53.5372 8.14605 46.8981 6.15362 36.9307 5.00656L36.7021 6.99344ZM49.8102 31.1115C50.4067 25.7957 49.6029 21.6901 47.4681 17.7048C45.364 13.7771 41.9816 10.001 37.5426 5.31248L36.0902 6.68752C40.5532 11.4013 43.7467 14.9934 45.7051 18.6492C47.6327 22.2475 48.3779 25.9409 47.8226 30.8885L49.8102 31.1115ZM48.8164 30H43.9918V32H48.8164V30ZM43.9918 30C42.3321 30 41.3946 31.9049 42.407 33.22L43.9918 32L43.9918 32V30ZM42.407 33.22L54.2316 48.5806L55.8164 47.3606L43.9918 32L42.407 33.22ZM54.2316 48.5806C55.0322 49.6206 56.6006 49.6206 57.4012 48.5806L55.8164 47.3606L54.2316 48.5806ZM57.4012 48.5806L69.2258 33.22L67.641 32L55.8164 47.3606L57.4012 48.5806ZM69.2258 33.22C70.2382 31.9049 69.3007 30 67.641 30V32V32L69.2258 33.22ZM67.641 30H62.8164V32H67.641V30Z" fill="#AB9B5E" mask="url(#path-8-inside-2_1179_52)"/>
</svg>