<svg width="120" height="120" viewBox="0 0 120 120" fill="none" xmlns="http://www.w3.org/2000/svg">
<circle opacity="0.2" cx="60" cy="66" r="49" fill="#AB9B5E"/>
<path d="M25 63.5808H71.5V103.581H25C23.6193 103.581 22.5 102.462 22.5 101.081V66.0808C22.5 64.7001 23.6193 63.5808 25 63.5808Z" fill="#DFD6BB" stroke="#AB9B5E"/>
<path d="M71.5 63.5808H95C96.3807 63.5808 97.5 64.7001 97.5 66.0808V101.081C97.5 102.462 96.3807 103.581 95 103.581H71.5V63.5808Z" fill="#DFD6BB" stroke="#AB9B5E"/>
<path d="M22.0627 63.5808H71.1649L64.342 76.3169C64.255 76.4794 64.0856 76.5808 63.9013 76.5808H14.777C14.3872 76.5808 14.1473 76.1545 14.3496 75.8213L21.6353 63.8213C21.726 63.672 21.888 63.5808 22.0627 63.5808Z" fill="white" stroke="#AB9B5E"/>
<path d="M79.5349 75.4327L71.9158 63.5808H97.454C97.6242 63.5808 97.7826 63.6673 97.8746 63.8104L105.589 75.8104C105.803 76.1432 105.564 76.5808 105.168 76.5808H81.6379C80.7872 76.5808 79.9949 76.1483 79.5349 75.4327Z" fill="white" stroke="#AB9B5E"/>
<circle cx="46.5" cy="88.5" r="9" fill="white" stroke="#AB9B5E"/>
<path d="M47.2841 92.1108V91.6484C47.2841 91.2673 47.3603 90.9242 47.5128 90.6193C47.6652 90.3111 47.8823 90.0675 48.1641 89.8885C48.4458 89.7095 48.7805 89.62 49.1683 89.62C49.5594 89.62 49.8942 89.7095 50.1726 89.8885C50.451 90.0675 50.6648 90.3111 50.8139 90.6193C50.9631 90.9242 51.0376 91.2673 51.0376 91.6484V92.1108C51.0376 92.492 50.9614 92.835 50.8089 93.1399C50.6598 93.4448 50.446 93.6884 50.1676 93.8707C49.8892 94.0497 49.5561 94.1392 49.1683 94.1392C48.7739 94.1392 48.4358 94.0497 48.1541 93.8707C47.8757 93.6884 47.6603 93.4448 47.5078 93.1399C47.3587 92.835 47.2841 92.492 47.2841 92.1108ZM48.0646 91.6484V92.1108C48.0646 92.4853 48.1558 92.8052 48.3381 93.0703C48.5237 93.3321 48.8004 93.4631 49.1683 93.4631C49.5263 93.4631 49.7964 93.3321 49.9787 93.0703C50.161 92.8052 50.2521 92.4853 50.2521 92.1108V91.6484C50.2521 91.2739 50.1626 90.9557 49.9837 90.6939C49.8047 90.4287 49.5329 90.2962 49.1683 90.2962C48.8071 90.2962 48.532 90.4287 48.343 90.6939C48.1574 90.9557 48.0646 91.2739 48.0646 91.6484ZM42.1534 86.1697V85.7074C42.1534 85.3262 42.2296 84.9832 42.3821 84.6783C42.5346 84.3733 42.7517 84.1314 43.0334 83.9524C43.3151 83.7701 43.6499 83.679 44.0376 83.679C44.4287 83.679 44.7635 83.7701 45.0419 83.9524C45.3203 84.1314 45.5341 84.3733 45.6832 84.6783C45.8324 84.9832 45.907 85.3262 45.907 85.7074V86.1697C45.907 86.5509 45.8307 86.8956 45.6783 87.2038C45.5291 87.5088 45.3153 87.7507 45.0369 87.9297C44.7585 88.1087 44.4254 88.1982 44.0376 88.1982C43.6432 88.1982 43.3052 88.1087 43.0234 87.9297C42.745 87.7507 42.5296 87.5088 42.3771 87.2038C42.228 86.8956 42.1534 86.5509 42.1534 86.1697ZM42.9339 85.7074V86.1697C42.9339 86.5443 43.0251 86.8641 43.2074 87.1293C43.393 87.3911 43.6697 87.522 44.0376 87.522C44.3956 87.522 44.6657 87.3911 44.848 87.1293C45.0303 86.8641 45.1214 86.5443 45.1214 86.1697V85.7074C45.1214 85.3329 45.032 85.0147 44.853 84.7528C44.674 84.4877 44.4022 84.3551 44.0376 84.3551C43.6764 84.3551 43.4013 84.4877 43.2124 84.7528C43.0268 85.0147 42.9339 85.3329 42.9339 85.7074ZM42.6108 94L49.6058 83.8182H50.4858L43.4908 94H42.6108Z" fill="#AB9B5E"/>
<rect x="49.2182" y="43.8363" width="7" height="21" rx="3.5" transform="rotate(-60 49.2182 43.8363)" fill="#DFD6BB" stroke="#AB9B5E"/>
<mask id="path-9-inside-1_1180_210" fill="white">
<path fill-rule="evenodd" clip-rule="evenodd" d="M76.6817 40.8116C80.2689 38.7405 79.819 31.2456 75.6769 24.0712C71.5348 16.8968 65.2689 12.7597 61.6817 14.8308C60.6769 15.411 59.9888 16.4167 59.6099 17.7219C57.6193 21.7633 54.2935 26.0246 49.5263 28.777C49.236 28.9446 48.9449 29.1072 48.6533 29.2649L48.6603 29.277L47.7942 29.777C43.4896 32.2622 42.0147 37.7666 44.5 42.0712C46.9853 46.3758 52.4896 47.8507 56.7942 45.3654L57.6603 44.8654L57.6672 44.8775C57.9496 44.7038 58.236 44.533 58.5263 44.3654C63.2941 41.6127 68.6473 40.8637 73.1431 41.1605C74.4624 41.4847 75.6771 41.3916 76.6817 40.8116Z"/>
</mask>
<path fill-rule="evenodd" clip-rule="evenodd" d="M76.6817 40.8116C80.2689 38.7405 79.819 31.2456 75.6769 24.0712C71.5348 16.8968 65.2689 12.7597 61.6817 14.8308C60.6769 15.411 59.9888 16.4167 59.6099 17.7219C57.6193 21.7633 54.2935 26.0246 49.5263 28.777C49.236 28.9446 48.9449 29.1072 48.6533 29.2649L48.6603 29.277L47.7942 29.777C43.4896 32.2622 42.0147 37.7666 44.5 42.0712C46.9853 46.3758 52.4896 47.8507 56.7942 45.3654L57.6603 44.8654L57.6672 44.8775C57.9496 44.7038 58.236 44.533 58.5263 44.3654C63.2941 41.6127 68.6473 40.8637 73.1431 41.1605C74.4624 41.4847 75.6771 41.3916 76.6817 40.8116Z" fill="#DFD6BB"/>
<path d="M59.6099 17.7219L60.507 18.1637L60.5458 18.085L60.5703 18.0006L59.6099 17.7219ZM48.6533 29.2649L48.1776 28.3853L47.2731 28.8744L47.7873 29.7649L48.6533 29.2649ZM48.6603 29.277L49.1603 30.143L50.0263 29.643L49.5263 28.777L48.6603 29.277ZM57.6603 44.8654L58.5263 44.3654L58.0263 43.4994L57.1603 43.9994L57.6603 44.8654ZM57.6672 44.8775L56.8012 45.3775L57.3153 46.268L58.1912 45.7292L57.6672 44.8775ZM73.1431 41.1605L73.3817 40.1894L73.2965 40.1685L73.209 40.1627L73.1431 41.1605ZM74.8109 24.5712C76.8212 28.0531 77.9089 31.571 78.0796 34.415C78.2543 37.3258 77.4706 39.2014 76.1817 39.9455L77.1817 41.6776C79.4801 40.3506 80.265 37.4433 80.076 34.2952C79.8831 31.0804 78.6748 27.2637 76.5429 23.5712L74.8109 24.5712ZM62.1817 15.6968C63.4706 14.9527 65.4868 15.2118 67.9202 16.8185C70.2979 18.3883 72.8006 21.0893 74.8109 24.5712L76.5429 23.5712C74.4111 19.8787 71.7098 16.924 69.0222 15.1494C66.3904 13.4118 63.4801 12.6378 61.1817 13.9648L62.1817 15.6968ZM60.5703 18.0006C60.8978 16.8722 61.4572 16.1152 62.1817 15.6968L61.1817 13.9648C59.8965 14.7068 59.0797 15.9613 58.6496 17.4431L60.5703 18.0006ZM50.0263 29.643C55.003 26.7697 58.4505 22.3388 60.507 18.1637L58.7128 17.28C56.788 21.1878 53.5841 25.2795 49.0263 27.9109L50.0263 29.643ZM49.1289 30.1445C49.4287 29.9824 49.7279 29.8152 50.0263 29.643L49.0263 27.9109C48.744 28.0739 48.4611 28.232 48.1776 28.3853L49.1289 30.1445ZM49.5263 28.777L49.5193 28.7649L47.7873 29.7649L47.7942 29.777L49.5263 28.777ZM48.2942 30.643L49.1603 30.143L48.1603 28.4109L47.2942 28.9109L48.2942 30.643ZM45.366 41.5712C43.1569 37.7449 44.4679 32.8521 48.2942 30.643L47.2942 28.9109C42.5113 31.6724 40.8726 37.7883 43.634 42.5712L45.366 41.5712ZM56.2942 44.4994C52.4679 46.7085 47.5752 45.3975 45.366 41.5712L43.634 42.5712C46.3954 47.3541 52.5113 48.9929 57.2942 46.2314L56.2942 44.4994ZM57.1603 43.9994L56.2942 44.4994L57.2942 46.2314L58.1603 45.7314L57.1603 43.9994ZM56.7942 45.3654L56.8012 45.3775L58.5332 44.3775L58.5263 44.3654L56.7942 45.3654ZM58.1912 45.7292C58.4656 45.5604 58.744 45.3944 59.0263 45.2314L58.0263 43.4994C57.7279 43.6717 57.4335 43.8472 57.1432 44.0257L58.1912 45.7292ZM59.0263 45.2314C63.5846 42.5997 68.73 41.8713 73.0772 42.1584L73.209 40.1627C68.5646 39.856 63.0035 40.6258 58.0263 43.4994L59.0263 45.2314ZM76.1817 39.9455C75.4573 40.3638 74.5224 40.4697 73.3817 40.1894L72.9045 42.1316C74.4024 42.4997 75.8969 42.4194 77.1817 41.6776L76.1817 39.9455Z" fill="#AB9B5E" mask="url(#path-9-inside-1_1180_210)"/>
<path d="M75.0574 24.3212C77.098 27.8557 78.2159 31.4484 78.3922 34.3851C78.5705 37.3552 77.7864 39.4887 76.2452 40.3786C74.704 41.2684 72.4642 40.8806 69.9812 39.2412C67.5261 37.6202 64.9737 34.8557 62.933 31.3212C60.8923 27.7866 59.7745 24.194 59.5982 21.2573C59.4199 18.2872 60.204 16.1537 61.7452 15.2638C63.2864 14.374 65.5261 14.7618 68.0092 16.4012C70.4643 18.0222 73.0167 20.7866 75.0574 24.3212Z" fill="white" stroke="#AB9B5E"/>
<rect x="48.6602" y="29.2769" width="1" height="18" transform="rotate(-30 48.6602 29.2769)" fill="#AB9B5E"/>
<path d="M79.2354 22.2341L91.3597 15.2341" stroke="#AB9B5E" stroke-linecap="round"/>
<path d="M77.1406 18.6069L81.1406 11.6787" stroke="#AB9B5E" stroke-linecap="round"/>
<path d="M89.5469 26.0955H81.5469" stroke="#AB9B5E" stroke-linecap="round"/>
</svg>